G04*
G04 #@! TF.GenerationSoftware,Altium Limited,Altium Designer,23.0.1 (38)*
G04*
G04 Layer_Color=16711935*
%FSLAX44Y44*%
%MOMM*%
G71*
G04*
G04 #@! TF.SameCoordinates,617F8338-E601-4E4F-91A7-566DE5F96DF1*
G04*
G04*
G04 #@! TF.FilePolarity,Negative*
G04*
G01*
G75*
%ADD13C,1.7032*%
%ADD14R,1.7032X1.7032*%
%ADD15C,1.8682*%
%ADD16C,2.6782*%
%ADD17C,1.6032*%
%ADD18R,1.7032X1.7032*%
%ADD19R,1.3032X1.3032*%
%ADD20C,1.3032*%
D13*
X1344930Y330200D02*
D03*
Y304800D02*
D03*
Y279400D02*
D03*
Y254000D02*
D03*
Y228600D02*
D03*
Y203200D02*
D03*
Y177800D02*
D03*
X481330Y173990D02*
D03*
X455930D02*
D03*
X474980Y332740D02*
D03*
X449580D02*
D03*
X30480Y162560D02*
D03*
X55880D02*
D03*
X81280D02*
D03*
X106680D02*
D03*
X132080D02*
D03*
X157480D02*
D03*
X182880D02*
D03*
X43180Y353060D02*
D03*
Y327660D02*
D03*
X1069340Y175260D02*
D03*
X1094740D02*
D03*
X1069340Y330200D02*
D03*
X1094740D02*
D03*
D14*
X1344930Y152400D02*
D03*
X43180Y302260D02*
D03*
D15*
X991870Y69850D02*
D03*
Y95250D02*
D03*
Y120650D02*
D03*
Y146050D02*
D03*
Y171450D02*
D03*
Y196850D02*
D03*
Y222250D02*
D03*
Y247650D02*
D03*
Y273050D02*
D03*
Y298450D02*
D03*
Y323850D02*
D03*
Y349250D02*
D03*
Y374650D02*
D03*
Y400050D02*
D03*
Y425450D02*
D03*
X839470D02*
D03*
Y400050D02*
D03*
Y374650D02*
D03*
Y349250D02*
D03*
Y323850D02*
D03*
Y298450D02*
D03*
Y273050D02*
D03*
Y247650D02*
D03*
Y222250D02*
D03*
Y196850D02*
D03*
Y171450D02*
D03*
Y146050D02*
D03*
Y120650D02*
D03*
Y95250D02*
D03*
Y69850D02*
D03*
X590550Y426720D02*
D03*
Y401320D02*
D03*
Y375920D02*
D03*
Y350520D02*
D03*
Y325120D02*
D03*
Y299720D02*
D03*
Y274320D02*
D03*
Y248920D02*
D03*
Y223520D02*
D03*
Y198120D02*
D03*
Y172720D02*
D03*
Y147320D02*
D03*
Y121920D02*
D03*
Y96520D02*
D03*
Y71120D02*
D03*
X742950D02*
D03*
Y96520D02*
D03*
Y121920D02*
D03*
Y147320D02*
D03*
Y172720D02*
D03*
Y198120D02*
D03*
Y223520D02*
D03*
Y248920D02*
D03*
Y274320D02*
D03*
Y299720D02*
D03*
Y325120D02*
D03*
Y350520D02*
D03*
Y375920D02*
D03*
Y401320D02*
D03*
Y426720D02*
D03*
D16*
X991870Y43950D02*
D03*
X839470D02*
D03*
X991870Y450350D02*
D03*
X839470D02*
D03*
X590550Y452620D02*
D03*
X742950D02*
D03*
X590550Y46220D02*
D03*
X742950D02*
D03*
D17*
X266700Y355600D02*
D03*
X368300D02*
D03*
X251460Y330200D02*
D03*
X353060D02*
D03*
X200660Y194310D02*
D03*
X99060D02*
D03*
X234950Y195580D02*
D03*
Y297180D02*
D03*
X109220Y331470D02*
D03*
X210820D02*
D03*
X270510Y297180D02*
D03*
Y195580D02*
D03*
X120650Y358140D02*
D03*
X222250D02*
D03*
X306070Y297180D02*
D03*
Y195580D02*
D03*
X340360Y297180D02*
D03*
Y195580D02*
D03*
X373380Y297180D02*
D03*
Y195580D02*
D03*
D18*
X430530Y173990D02*
D03*
X424180Y332740D02*
D03*
X208280Y162560D02*
D03*
X1043940Y175260D02*
D03*
Y330200D02*
D03*
D19*
X189230Y293270D02*
D03*
D20*
X163830D02*
D03*
X138430D02*
D03*
X113030D02*
D03*
Y217270D02*
D03*
X138430D02*
D03*
X163830D02*
D03*
X189230D02*
D03*
M02*
