M48
;Layer_Color=9474304
;FILE_FORMAT=4:4
METRIC,LZ
;TYPE=PLATED
T1F00S00C0.7000
T2F00S00C0.8500
T3F00S00C0.9000
T4F00S00C1.1100
T5F00S00C1.6500
%
T01
X0016383Y0021727
X0018923
Y0029327
X0016383
X0013843
X0011303
Y0021727
X0013843
T02
X0020066Y0019431
X0023495Y0019558
X0027051
X0030607
X0034036
X0037338
Y0029718
X0034036
X0030607
X0027051
X0023495
X0025146Y003302
X002667Y003556
X0022225Y0035814
X0021082Y0033147
X0035306Y003302
X003683Y003556
X0012065Y0035814
X0010922Y0033147
X0009906Y0019431
T03
X0134493Y001524
Y001778
Y002032
Y002286
Y00254
Y002794
Y003048
Y003302
X0109474
X0106934
X0104394
Y0017526
X0106934
X0109474
X0048133Y0017399
X0045593
X0043053
X0042418Y0033274
X0044958
X0047498
X0020828Y0016256
X0018288
X0015748
X0013208
X0010668
X0008128
X0005588
X0003048
X0004318Y0030226
Y0032766
Y0035306
T04
X0059055Y0007112
Y0009652
Y0012192
X0074295
Y0009652
Y0007112
X0083947Y0006985
Y0009525
Y0012065
X0099187
Y0009525
Y0006985
Y0014605
Y0017145
Y0019685
Y0022225
Y0024765
Y0027305
Y0029845
Y0032385
Y0034925
Y0037465
Y0040005
Y0042545
X0083947
Y0040005
Y0037465
Y0034925
Y0032385
Y0029845
Y0027305
Y0024765
Y0022225
Y0019685
Y0017145
Y0014605
X0074295Y0014732
Y0017272
Y0019812
Y0022352
Y0024892
Y0027432
Y0029972
Y0032512
Y0035052
Y0037592
Y0040132
Y0042672
X0059055
Y0040132
Y0037592
Y0035052
Y0032512
Y0029972
Y0027432
Y0024892
Y0022352
Y0019812
Y0017272
Y0014732
T05
X0059055Y0004622
X0074295
X0083947Y0004395
X0099187
Y0045035
X0083947
X0074295Y0045262
X0059055
M30
