G04*
G04 #@! TF.GenerationSoftware,Altium Limited,Altium Designer,24.0.1 (36)*
G04*
G04 Layer_Physical_Order=1*
G04 Layer_Color=255*
%FSLAX44Y44*%
%MOMM*%
G71*
G04*
G04 #@! TF.SameCoordinates,87269C32-D71D-4AF1-8112-4F1BC4A23861*
G04*
G04*
G04 #@! TF.FilePolarity,Positive*
G04*
G01*
G75*
%ADD25C,0.5080*%
%ADD26C,0.3810*%
%ADD27C,1.6500*%
%ADD28R,1.6500X1.6500*%
%ADD29C,1.7780*%
%ADD30C,2.2860*%
%ADD31C,1.5000*%
%ADD32R,1.5000X1.5000*%
%ADD33C,1.6650*%
%ADD34C,2.4750*%
%ADD35C,1.2700*%
D25*
X632060Y674370D02*
X634245Y672185D01*
Y658615D02*
Y672185D01*
X679450Y613410D02*
X730250D01*
X634245Y658615D02*
X679450Y613410D01*
X400050Y651510D02*
X422910Y674370D01*
X582060D01*
X55880Y318770D02*
Y612140D01*
X95250Y651510D02*
X400050D01*
X55880Y612140D02*
X95250Y651510D01*
X69850Y304800D02*
X1037590D01*
X55880Y318770D02*
X69850Y304800D01*
X1268095Y292100D02*
X1334770Y358775D01*
X844550Y292100D02*
X1268095D01*
X1037590Y304800D02*
X1047750Y314960D01*
Y344170D01*
X761238Y312928D02*
X768350Y320040D01*
Y344170D01*
X78232Y312928D02*
X761238D01*
X68580Y322580D02*
X78232Y312928D01*
X68580Y322580D02*
Y434340D01*
X91440Y457200D01*
X703453Y417830D02*
X941070D01*
X971550Y387350D01*
X393700Y417830D02*
X680720D01*
X793750Y344170D02*
Y363220D01*
X783590Y373380D02*
X793750Y363220D01*
X703580Y373380D02*
X783590D01*
X193040Y355600D02*
X210820Y373380D01*
X680720D01*
X834390Y377190D02*
X958850D01*
X971550Y344170D02*
Y387350D01*
X819150Y361950D02*
X834390Y377190D01*
X995680Y387350D02*
X1104900D01*
X985520Y377190D02*
X995680Y387350D01*
X819150Y344170D02*
Y361950D01*
X1104900Y387350D02*
X1177925Y460375D01*
X1233170D01*
X1119342Y417032D02*
X1189990Y487680D01*
X1001232Y417032D02*
X1119342D01*
X1189990Y487680D02*
X1231265D01*
X196850Y482600D02*
X328930D01*
X91440D02*
X196850D01*
X167640Y453390D02*
X196850Y482600D01*
X167640Y355600D02*
Y453390D01*
X328930Y482600D02*
X393700Y417830D01*
X971550Y387350D02*
X1001232Y417032D01*
X1309370Y358775D02*
Y469900D01*
X1293495Y485775D02*
X1309370Y469900D01*
X1233170Y485775D02*
X1293495D01*
X1231265Y487680D02*
X1233170Y485775D01*
X1015365Y643255D02*
X1016000Y642620D01*
X819150Y668020D02*
X1016000D01*
X730250Y613410D02*
X764540D01*
X819150Y668020D01*
D26*
X1125220Y484331D02*
Y538480D01*
X922020Y449580D02*
X924426D01*
X931538Y456692D01*
X1097581D01*
X1125220Y484331D01*
X702310Y463550D02*
X1094740D01*
X724662Y470408D02*
X1090930D01*
X692150Y473710D02*
Y496570D01*
X1094740Y463550D02*
X1106170Y474980D01*
X692150Y473710D02*
X702310Y463550D01*
X1090930Y470408D02*
X1097280Y476758D01*
Y516890D01*
X1106170Y474980D02*
Y521970D01*
X1092200Y535940D02*
X1106170Y521970D01*
X1079747Y534423D02*
X1097280Y516890D01*
X1277236Y561591D02*
X1303020Y587375D01*
X1148331Y561591D02*
X1277236D01*
X1125220Y538480D02*
X1148331Y561591D01*
X692150Y344170D02*
Y447040D01*
X665480Y473710D02*
X692150Y447040D01*
X161290Y584200D02*
X190500Y554990D01*
X760323D01*
X943610Y549910D02*
X944880Y551180D01*
X853643Y549910D02*
X943610D01*
X760323Y554990D02*
X761466Y556133D01*
X847420D02*
X853643Y549910D01*
X761466Y556133D02*
X847420D01*
X776598Y537718D02*
X1037590D01*
X750436Y530860D02*
X1046480D01*
X1050290Y521970D02*
X1066800Y538480D01*
X652780Y521970D02*
X1050290D01*
X645160Y477520D02*
Y514350D01*
X652780Y521970D01*
X746626Y534670D02*
X750436Y530860D01*
X744220Y534670D02*
X746626D01*
X1046480Y530860D02*
X1053853Y538233D01*
X1037590Y537718D02*
X1041400Y541528D01*
X645160Y477520D02*
X648970Y473710D01*
X665480D01*
X767080Y544830D02*
X769486D01*
X776598Y537718D01*
X1041400Y541528D02*
Y642620D01*
Y668020D02*
X1053853Y655567D01*
Y538233D02*
Y655567D01*
X1066800Y538480D02*
Y642620D01*
X1092200Y535940D02*
Y642620D01*
X1079747Y534423D02*
Y655073D01*
X1066800Y668020D02*
X1079747Y655073D01*
X717550Y477520D02*
Y496570D01*
Y477520D02*
X724662Y470408D01*
D27*
X632060Y674370D02*
D03*
X607060D02*
D03*
X400050Y651510D02*
D03*
X450850D02*
D03*
D28*
X582060Y674370D02*
D03*
D29*
X91440Y431800D02*
D03*
Y457200D02*
D03*
Y482600D02*
D03*
X218440Y355600D02*
D03*
X193040D02*
D03*
X167640D02*
D03*
X224790Y533400D02*
D03*
X161290D02*
D03*
X224790Y584200D02*
D03*
X161290D02*
D03*
X1233170Y434975D02*
D03*
Y460375D02*
D03*
Y485775D02*
D03*
X1360170Y358775D02*
D03*
X1334770D02*
D03*
X1309370D02*
D03*
X1366520Y536575D02*
D03*
X1303020D02*
D03*
X1366520Y587375D02*
D03*
X1303020D02*
D03*
D30*
X269240Y523875D02*
D03*
Y390525D02*
D03*
X116840D02*
D03*
Y523875D02*
D03*
X1410970Y527050D02*
D03*
Y393700D02*
D03*
X1258570D02*
D03*
Y527050D02*
D03*
D31*
X730250Y580390D02*
D03*
Y613410D02*
D03*
X1092200Y668020D02*
D03*
Y642620D02*
D03*
X1066800Y668020D02*
D03*
Y642620D02*
D03*
X1041400Y668020D02*
D03*
Y642620D02*
D03*
X1016000Y668020D02*
D03*
D32*
Y642620D02*
D03*
D33*
X971550Y496570D02*
D03*
X946150D02*
D03*
X768350D02*
D03*
X742950D02*
D03*
X717550D02*
D03*
X692150D02*
D03*
Y344170D02*
D03*
X768350D02*
D03*
X793750D02*
D03*
X819150D02*
D03*
X844550D02*
D03*
X971550D02*
D03*
X1022350D02*
D03*
X1047750D02*
D03*
X895350Y496570D02*
D03*
X996950Y344170D02*
D03*
X946150D02*
D03*
X920750D02*
D03*
X895350D02*
D03*
X869950D02*
D03*
X742950D02*
D03*
X717550D02*
D03*
X793750Y496570D02*
D03*
X819150D02*
D03*
X844550D02*
D03*
X869950D02*
D03*
X920750D02*
D03*
X996950D02*
D03*
X1022350D02*
D03*
X1047750D02*
D03*
D34*
X667250Y344170D02*
D03*
Y496570D02*
D03*
X1073650Y344170D02*
D03*
Y496570D02*
D03*
D35*
X844550Y292100D02*
D03*
X922020Y449580D02*
D03*
X703453Y417830D02*
D03*
X680720D02*
D03*
X703580Y373380D02*
D03*
X680720D02*
D03*
X958850Y377190D02*
D03*
X985520D02*
D03*
X944880Y551180D02*
D03*
X767080Y544830D02*
D03*
X744220Y534670D02*
D03*
M02*
