G04*
G04 #@! TF.GenerationSoftware,Altium Limited,Altium Designer,24.0.1 (36)*
G04*
G04 Layer_Color=8388736*
%FSLAX44Y44*%
%MOMM*%
G71*
G04*
G04 #@! TF.SameCoordinates,87269C32-D71D-4AF1-8112-4F1BC4A23861*
G04*
G04*
G04 #@! TF.FilePolarity,Negative*
G04*
G01*
G75*
%ADD16C,1.8532*%
%ADD17R,1.8532X1.8532*%
%ADD18C,1.9812*%
%ADD19C,2.4892*%
%ADD20C,1.7032*%
%ADD21R,1.7032X1.7032*%
%ADD22C,1.8682*%
%ADD23C,2.6782*%
%ADD24C,1.4732*%
D16*
X632060Y674370D02*
D03*
X607060D02*
D03*
X400050Y651510D02*
D03*
X450850D02*
D03*
D17*
X582060Y674370D02*
D03*
D18*
X91440Y431800D02*
D03*
Y457200D02*
D03*
Y482600D02*
D03*
X218440Y355600D02*
D03*
X193040D02*
D03*
X167640D02*
D03*
X224790Y533400D02*
D03*
X161290D02*
D03*
X224790Y584200D02*
D03*
X161290D02*
D03*
X1233170Y434975D02*
D03*
Y460375D02*
D03*
Y485775D02*
D03*
X1360170Y358775D02*
D03*
X1334770D02*
D03*
X1309370D02*
D03*
X1366520Y536575D02*
D03*
X1303020D02*
D03*
X1366520Y587375D02*
D03*
X1303020D02*
D03*
D19*
X269240Y523875D02*
D03*
Y390525D02*
D03*
X116840D02*
D03*
Y523875D02*
D03*
X1410970Y527050D02*
D03*
Y393700D02*
D03*
X1258570D02*
D03*
Y527050D02*
D03*
D20*
X730250Y580390D02*
D03*
Y613410D02*
D03*
X1092200Y668020D02*
D03*
Y642620D02*
D03*
X1066800Y668020D02*
D03*
Y642620D02*
D03*
X1041400Y668020D02*
D03*
Y642620D02*
D03*
X1016000Y668020D02*
D03*
D21*
Y642620D02*
D03*
D22*
X971550Y496570D02*
D03*
X946150D02*
D03*
X768350D02*
D03*
X742950D02*
D03*
X717550D02*
D03*
X692150D02*
D03*
Y344170D02*
D03*
X768350D02*
D03*
X793750D02*
D03*
X819150D02*
D03*
X844550D02*
D03*
X971550D02*
D03*
X1022350D02*
D03*
X1047750D02*
D03*
X895350Y496570D02*
D03*
X996950Y344170D02*
D03*
X946150D02*
D03*
X920750D02*
D03*
X895350D02*
D03*
X869950D02*
D03*
X742950D02*
D03*
X717550D02*
D03*
X793750Y496570D02*
D03*
X819150D02*
D03*
X844550D02*
D03*
X869950D02*
D03*
X920750D02*
D03*
X996950D02*
D03*
X1022350D02*
D03*
X1047750D02*
D03*
D23*
X667250Y344170D02*
D03*
Y496570D02*
D03*
X1073650Y344170D02*
D03*
Y496570D02*
D03*
D24*
X844550Y292100D02*
D03*
X922020Y449580D02*
D03*
X703453Y417830D02*
D03*
X680720D02*
D03*
X703580Y373380D02*
D03*
X680720D02*
D03*
X958850Y377190D02*
D03*
X985520D02*
D03*
X944880Y551180D02*
D03*
X767080Y544830D02*
D03*
X744220Y534670D02*
D03*
M02*
