M48
;Layer_Color=9474304
;FILE_FORMAT=4:4
METRIC,LZ
;TYPE=PLATED
T01F00S00C0.7112
T02F00S00C0.8890
T03F00S00C0.9000
T04F00S00C1.0000
T05F00S00C1.1000
T06F00S00C1.1100
T07F00S00C1.1500
T08F00S00C1.3970
T09F00S00C1.6500
%
T01
X0095885Y0037719
X0098552
X0092202Y0044958
X0084455Y002921
X0070358Y0037338
X0068072
Y0041783
X00703453
X0074422Y0053467
X0076708Y0054483
X0094488Y0055118
T02
X0133477Y00358775
X0136017
X0130937
X0123317Y00434975
Y00460375
Y00485775
X0021844Y003556
X0019304
X0016764
X0009144Y004318
Y004572
Y004826
T03
X0136652Y00536575
X0130302
X0022479Y005334
X0016129
Y005842
X0022479
X01016Y0064262
X010414
X010668
X010922
Y0066802
X010668
X010414
X01016
X0130302Y00587375
X0136652
T04
X0073025Y0058039
Y0061341
T05
X0040005Y0065151
X0045085
T06
X0094615Y0034417
X0097155
X0099695
X0102235
X0104775
Y0049657
X0102235
X0099695
X0097155
X0094615
X0092075
X0089535
X0086995
X0084455
X0081915
X0079375
X0076835
X0074295
X0071755
X0069215
Y0034417
X0071755
X0074295
X0076835
X0079375
X0081915
X0084455
X0086995
X0089535
X0092075
T07
X0058206Y0067437
X0060706
X0063206
T08
X0141097Y003937
Y0052705
X0125857
Y003937
X0026924Y00390525
Y00523875
X0011684
Y00390525
T09
X0107365Y0034417
Y0049657
X0066725
Y0034417
M30
